# xmcd
#
# Track frame offsets:
#	150
#	14948
#	28943
#	42033
#	56290
#	71708
#	88055
#	99253
#	112278
#	125853
#	138578
#	152915
#	164995
#	178340
#	192678
#	205358
#	219485
#	233535
#	247515
#
# Disc length: 3501 seconds
#
# Revision: 1
# Processed by: cddbd v1.4PL0 Copyright (c) Steve Scherf et al.
# Submitted via: EasyCDDAExtractor 5.0.7
#
DISCID=260dab13
DTITLE=Various Artist - Early downhome blues
DYEAR=1900
DGENRE=Blues
TTITLE0=Garfield Akers - Cottonfield Blues
TTITLE1=Roosevelt Sykes - 44Blues
TTITLE2=Mississipi John Hurt - Got the blues
TTITLE3=Eddie House - My Black mama
TTITLE4=Willie Walker and Sam Brooks - Dupree Blues
TTITLE5=Tommy Johnson - Maggie Campbell Blues
TTITLE6=Lilian Miller - Dead drunk blues
TTITLE7=Nolan Welsh - Dying pickpocket blues
TTITLE8=Charley Patton - Pony Blues
TTITLE9=Buddy boy Hawkins - Number three blues
TTITLE10=Joe Dean - I'm so glad I'm 21 today
TTITLE11=Blind Blake - One time blues
TTITLE12=Hambone - Roll and tumble blues
TTITLE13=Barbecue Bob - Barbecue blues
TTITLE14=Texas Alexander - Yellow girl blues
TTITLE15=Leroy Carr and Francis Blackwell - Prison bound blues
TTITLE16=Willie Brown - M. and O. Blues
TTITLE17=Kansas Joe McCoy and Memphis Minnie - That will be alright
TTITLE18=Tommy Johnson - Lonesome blues
EXTD=
EXTT0=
EXTT1=
EXTT2=
EXTT3=
EXTT4=
EXTT5=
EXTT6=
EXTT7=
EXTT8=
EXTT9=
EXTT10=
EXTT11=
EXTT12=
EXTT13=
EXTT14=
EXTT15=
EXTT16=
EXTT17=
EXTT18=
PLAYORDER=
